<?xml version="1.0" encoding="UTF-8"?>
<svg version="1.1" xmlns="http://www.w3.org/2000/svg" width="32" height="32">
<path d="M0 0 C10.56 0 21.12 0 32 0 C32 10.56 32 21.12 32 32 C21.44 32 10.88 32 0 32 C0 21.44 0 10.88 0 0 Z " fill="#C7070B" transform="translate(0,0)"/>
<path d="M0 0 C5.61 0 11.22 0 17 0 C16.34 1.65 15.68 3.3 15 5 C14.57056312 7.26117071 14.19727072 9.53358565 13.875 11.8125 C13.62363281 13.55466797 13.62363281 13.55466797 13.3671875 15.33203125 C13.24601563 16.21246094 13.12484375 17.09289062 13 18 C12.34 17.67 11.68 17.34 11 17 C10.3671875 15.07421875 10.3671875 15.07421875 9.875 12.6875 C9.70742187 11.90761719 9.53984375 11.12773437 9.3671875 10.32421875 C9 8 9 8 9 4 C7.68 3.67 6.36 3.34 5 3 C5.25394531 3.7528125 5.50789062 4.505625 5.76953125 5.28125 C8.62673248 14.09897963 10.45368921 22.87442347 12 32 C8.04 32 4.08 32 0 32 C0 21.44 0 10.88 0 0 Z " fill="#C7070A" transform="translate(0,0)"/>
<path d="M0 0 C0.66 0.33 1.32 0.66 2 1 C2.63801836 3.5315866 3.16687368 5.99839502 3.625 8.5625 C3.7590625 9.27341797 3.893125 9.98433594 4.03125 10.71679688 C4.36191847 12.47642553 4.68195767 14.23804548 5 16 C5.33 16 5.66 16 6 16 C6.66 11.71 7.32 7.42 8 3 C9.32 2.67 10.64 2.34 12 2 C11.3756494 4.97930406 10.75053509 7.95844461 10.125 10.9375 C9.86396484 12.18370117 9.86396484 12.18370117 9.59765625 13.45507812 C8.43697562 18.97905817 7.23390253 24.49190357 6 30 C5.34 30 4.68 30 4 30 C3.01 25.05 2.02 20.1 1 15 C0.01 20.28 -0.98 25.56 -2 31 C-2.66 30.67 -3.32 30.34 -4 30 C-4.67016602 27.85449219 -4.67016602 27.85449219 -5.25390625 25.046875 C-5.57584961 23.52900391 -5.57584961 23.52900391 -5.90429688 21.98046875 C-6.12150391 20.91441406 -6.33871094 19.84835938 -6.5625 18.75 C-6.78357422 17.69941406 -7.00464844 16.64882813 -7.23242188 15.56640625 C-8.17994698 11.04920198 -9.09788106 6.52647528 -10 2 C-8.35 2 -6.7 2 -5 2 C-4.93941406 2.59167969 -4.87882813 3.18335938 -4.81640625 3.79296875 C-4.73261719 4.58316406 -4.64882812 5.37335937 -4.5625 6.1875 C-4.44068359 7.35345703 -4.44068359 7.35345703 -4.31640625 8.54296875 C-3.99402379 11.04640786 -3.49501895 13.52490524 -3 16 C-2.01 10.72 -1.02 5.44 0 0 Z " fill="#F9E6E7" transform="translate(15,1)"/>
<path d="M0 0 C2.47999067 2.47999067 2.54722102 3.95418162 3.125 7.375 C3.29257812 8.33148438 3.46015625 9.28796875 3.6328125 10.2734375 C4 13 4 13 4 17 C4.66 17.33 5.32 17.66 6 18 C3.36 18 0.72 18 -2 18 C-1.03644647 5.33029613 -1.03644647 5.33029613 0 0 Z " fill="#CA171A" transform="translate(15,14)"/>
<path d="M0 0 C0.66 0.33 1.32 0.66 2 1 C3.17169312 4.98375661 3.08089427 8.87439224 3 13 C2.01 12.67 1.02 12.34 0 12 C-0.33 12.66 -0.66 13.32 -1 14 C-1.027193 12.41676312 -1.04648306 10.83338938 -1.0625 9.25 C-1.07410156 8.36828125 -1.08570313 7.4865625 -1.09765625 6.578125 C-1.00826198 4.2181162 -0.66912821 2.25501476 0 0 Z " fill="#FAEBEB" transform="translate(15,1)"/>
<path d="M0 0 C1.98 0.495 1.98 0.495 4 1 C3.01 4.96 2.02 8.92 1 13 C0.34 12.67 -0.32 12.34 -1 12 C-0.67 8.04 -0.34 4.08 0 0 Z " fill="#F6D7D8" transform="translate(23,3)"/>
<path d="M0 0 C0.33 0 0.66 0 1 0 C1.33 3.3 1.66 6.6 2 10 C1.34 10 0.68 10 0 10 C-0.33 10.66 -0.66 11.32 -1 12 C-1.66 9.03 -2.32 6.06 -3 3 C-2.34 3 -1.68 3 -1 3 C-0.67 2.01 -0.34 1.02 0 0 Z " fill="#F5D6D7" transform="translate(18,10)"/>
<path d="M0 0 C2.1519437 3.22791555 2.20086443 4.28400809 2 8 C0.68 7.67 -0.64 7.34 -2 7 C-1.34 4.69 -0.68 2.38 0 0 Z " fill="#F2C6C7" transform="translate(13,12)"/>
</svg>
